<svg viewBox="0 0 163 70" fill="none" width="163" height="70" xmlns="http://www.w3.org/2000/svg" xmlns:xlink="http://www.w3.org/1999/xlink">
  <g fill="currentColor" clip-path="url(#clip0_8205_59582)" id="logo">
    <path d="M19.1901 18.0666c9.5719-0.8931 18.0533 6.148 18.9366 15.7208 0.8833 9.5732-6.1663 18.0469-15.74 18.9204-9.56 0.8725-18.0193-6.1648-18.9013-15.7241-0.882-9.5588 6.1466-18.0253 15.7047-18.9171zM22.661 50.8668c8.5453-1.0261 14.6391-8.7881 13.608-17.3323-1.0311-8.5447-8.7966-14.6337-17.3406-13.5971-8.5363 1.0355-14.6187 8.7925-13.5885 17.3291 1.0302 8.5379 8.7833 14.6245 17.3211 13.6003z" />
    <path d="M27.6137 26.3345l2.0023-0.0137c0.0389 5.7787 0.0417 11.5578 86e-4 17.3365l-2.0703 0.0261-31e-4-10.8579-95e-4-2.9733c-1.1564 2.1947-2.4693 4.3045-3.7202 6.4459-0.7928 1.3572-1.5292 2.9145-2.5103 4.135-0.2341 0.0856-0.4879 0.0921-0.7318 0.0363-0.0797-0.0186-0.2466-0.081-0.3071-0.1293-0.5292-0.4224-5.5056-9.1643-6.3003-10.49 0.204 1.572 0.0758 3.2873 0.0749 4.8742l-6e-3 8.9163-2.1171 74e-4c0.0656-5.7694-0.0379-11.5429 0.0174-17.3136l2.3054 0.012c1.0251 1.8329 2.1248 3.6274 3.1878 5.4387 1.1297 1.9249 2.2298 3.873 3.43 5.7549 1.221-2.2298 2.5864-4.391 3.899-6.5692 0.9297-1.5427 1.8086-3.1674 2.8503-4.6363z" />
    <path d="M133.622 30.4519c0.409-0.0275 0.828-0.0383 1.238-0.031 1.526 0.0273 3.085 0.8435 4.13 1.9255 1.302 1.3483 1.907 3.2288 1.863 5.0838-0.044 1.8874-0.751 3.6819-2.14 4.9768-1.232 1.147-2.81 1.761-4.497 1.6977-1.932-0.0726-3.213-0.8865-4.509-2.2698-0.05 0.7916-0.035 1.5926-0.043 2.3861 9e-3 1.5758 7e-3 3.1517-6e-3 4.7284-0.735 0.0726-1.476 0.0661-2.21-0.0204 0.12-2.4401 0.014-4.9387 0.015-7.3853 0-3.6391 0.058-7.288-0.024-10.926l2.186-85e-4c-0.043 0.8118-0.033 1.6319-0.045 2.4451 1.185-1.4779 2.173-2.1905 4.042-2.6024zM134.569 42.1521c1.359-0.2549 2.412-0.8093 3.21-1.9824 0.78-1.1674 1.06-2.5991 0.776-3.974-0.243-1.2253-0.969-2.3834-2.036-3.053-0.84-0.5271-1.749-0.6719-2.719-0.6445-1.347 0.2547-2.439 0.7344-3.247 1.9086-0.761 1.1061-1.088 2.681-0.831 3.9964 0.244 1.2633 0.992 2.3721 2.074 3.068 0.863 0.5423 1.773 0.6986 2.773 0.6809z" />
    <path d="M92.8299 24.9692c0.3563 0.3662 0.467 1.3323 0.6791 1.8498-2.294 0.9628-5.6197 0.7648-7.4643 2.5269-1.1033 1.0541-1.3666 2.5117-1.3898 3.9643 0.987-1.2191 2.0688-2.2069 3.6875-2.4774 1.6354-0.2735 3.3684 0.0429 4.7098 1.0411 1.441 1.0727 2.2429 2.6277 2.4838 4.389 0.2763 2.0243-0.2279 3.9331-1.4698 5.5499-0.8995 0.9982-1.9461 1.7359-3.2642 2.0587-1.6689 0.4093-3.5741 0.1972-5.0448-0.7154-1.6772-1.0419-2.6428-2.761-3.0614-4.6522-0.6252-2.8261-0.5024-7.0497 1.1265-9.5582 1.4363-2.213 3.6056-2.6511 6.0159-3.2244 1.001-0.238 1.988-0.5309 2.9917-0.7521zM89.0159 42.1645c1.4205-0.2103 2.4772-0.5508 3.36-1.7712 0.8661-1.1963 1.1461-2.7071 0.8773-4.1452-0.2168-1.1606-0.828-2.2221-1.8243-2.8789-0.6102-0.4034-1.3181-0.6346-2.0493-0.6692-1.3824 0.1545-2.5191 0.4408-3.4391 1.5809-0.8633 1.0704-1.2326 2.516-1.0419 3.8723 0.1739 1.2373 0.8502 2.428 1.8661 3.1657 0.6874 0.4986 1.4251 0.7172 2.2512 0.8456z" />
    <path d="M61.7475 25.8497c0.8076-0.081 1.6478-0.0423 2.46-0.0479-0.1096 5.946 0.0212 11.9095-0.013 17.8585l-2.1413-0.0214 33e-4-10.5188c-58e-4-1.2051-0.0309-2.4127 0.0429-3.6162-1.9734 3.6447-3.7539 7.4492-5.9153 10.9833l-1.3914-75e-4c-2.129-3.4903-3.9007-7.2513-5.8694-10.8379 0.077 1.6448 0.0249 3.315 0.026 4.9623l48e-4 9.0571c-0.7139-0.0186-1.425 0.0279-2.1398-56e-4l1e-3-10.8349c15e-4-2.3291-0.0441-4.6727 0.0836-6.9986l2.3824 13e-4c0.6772 1.1611 1.2528 2.4053 1.8681 3.6014 1.4273 2.7747 2.8402 5.5795 4.38 8.293 2.2632-3.8373 4.0546-7.9706 6.2181-11.8681z" />
    <path d="M72.7607 30.4563c0.3268-0.0175 0.6539-0.0299 0.981-0.0371 1.7143-0.0281 3.4226 0.4396 4.6585 1.6819 1.6534 1.6618 1.8179 3.756 1.8182 5.9691-3.5685 0.0456-7.142-28e-4-10.7113 0.013 0.1101 0.5889 0.2209 1.1526 0.5011 1.6903 0.5578 1.0753 1.526 1.88 2.6852 2.2317 1.3875 0.4204 2.7831 0.1739 4.0312-0.5145 0.4187-0.2846 0.8016-0.6177 1.1913-0.9395 0.5601 0.32 1.127 0.587 1.7191 0.8428-0.8807 1.1879-2.0159 2.054-3.4527 2.4475-1.8395 0.5032-4.0816 0.306-5.7387-0.6689-1.4529-0.8567-2.4954-2.267-2.8879-3.907-0.4895-1.9722-0.2161-4.1292 0.854-5.8639 1.0315-1.672 2.4789-2.4983 4.351-2.9454zM69.53 36.4032c1.7676-0.014 3.5352-0.0196 5.3029-0.0149l3.304 19e-4c-0.3222-1.356-0.6451-2.6129-1.9069-3.4067-0.9231-0.5809-2.0426-0.6693-3.1051-0.5808-1.1474 0.265-2.1146 0.7872-2.7694 1.7985-0.4433 0.6847-0.6399 1.4206-0.8255 2.202z" />
    <path d="M117.153 30.4525c0.321-0.016 0.641-0.0267 0.962-0.0321 1.71-0.0185 3.419 0.4888 4.639 1.7363 1.606 1.6422 1.754 3.7378 1.746 5.9053-3.553 0.0539-7.115 0.0111-10.67 0.0195 0.047 0.6484 0.16 1.2065 0.464 1.7898 0.56 1.08 1.489 1.7944 2.649 2.134 1.552 0.4558 2.964 0.1191 4.335-0.6419 0.335-0.2307 0.633-0.5126 0.937-0.7823 0.564 0.3032 1.135 0.5488 1.728 0.7851-0.929 1.2214-2.085 2.107-3.587 2.4875-1.867 0.4735-4.01 0.2921-5.676-0.7135-1.479-0.8931-2.493-2.3647-2.882-4.041-0.444-1.9145-0.134-4.1164 0.936-5.7761 1.069-1.6594 2.533-2.4625 4.419-2.8706zM113.81 36.3987c1.692-47e-4 3.386-0.0279 5.078-0.0103l3.586-18e-4c-0.372-1.3942-0.762-2.7525-2.11-3.5194-0.836-0.4755-1.853-0.5565-2.797-0.4612-1.119 0.1852-2.065 0.6063-2.76 1.5418-0.55 0.741-0.785 1.569-0.997 2.4509z" />
    <path d="M154.059 30.6404c2.165-0.1015 4.361-0.0279 6.53-0.021-0.111 4.3341-0.012 8.6974-0.014 13.0352l-2.23-0.0242-2e-3-4.4531c-1.065-65e-4-2.468-0.2149-3.484 0.027-0.317 0.0753-0.374 0.2353-0.551 0.4818-0.753 1.335-1.59 2.6234-2.346 3.9592-0.842 0.0186-1.686 0.0214-2.529 65e-4 0.825-1.5489 1.945-3.5201 3.037-4.8615-0.13-0.0632-0.258-0.1302-0.385-0.1991-0.952-0.5256-1.681-1.3712-1.96-2.4316-0.29-1.1055-0.132-2.3673 0.46-3.3489 0.797-1.3243 2.045-1.8335 3.474-2.1703zM156.346 37.3084c0.658-56e-4 1.33 0.0149 1.987-0.0325-9e-3-1.5415-5e-3-3.0829 0.012-4.6243-1.308-48e-4-2.634-0.0398-3.94 0.0318-0.824 0.2581-1.468 0.5367-1.912 1.331-0.295 0.5279-0.374 1.2246-0.175 1.7982 0.192 0.5553 0.638 0.9451 1.163 1.1823 0.885 0.4 1.916 0.3219 2.865 0.3135z" />
    <path d="M100.064 30.7599c2.825-0.1018 5.673-0.0358 8.5-0.041l-0.013 12.9339c-0.704-0.0102-1.411-0.04-2.11 0.0559l-0.01-10.9561-1.198 0.0483c-1.07-0.0527-2.163 0.0177-3.235 0.0428-0.029 2.6071-0.04 8.0119-1.866 9.9412-0.9105 0.9619-1.9394 1.0605-3.1831 1.0707-93e-4-0.68-0.0456-1.3516-0.0949-2.0298 0.3247-0.0297 0.6689-0.0521 0.9851-0.1321 1.9657-0.4958 2.0001-6.9909 2.0494-8.6285 0.0195-0.6382-0.1219-1.7857 0.1755-2.3053z" />
    <path d="M145.872 30.6642l0.289-0.017c0.034 0.047 0.084 0.0862 0.105 0.141 0.097 0.2544-3e-3 11.5529-2e-3 12.859l-1.894 0.013-0.139-0.0279c-0.304-0.5479 1e-3-11.3147-0.094-12.9423 0.578 72e-4 1.157-0.0123 1.735-0.0258z" />
    <path d="M144.097 25.7865l2.179-65e-4c-0.023 0.7732-6e-3 1.5469 5e-3 2.3202l-2.242 0.0169c0.032-0.7765 0.052-1.5534 0.058-2.3306z" />
  </g>
  <defs>
    <clipPath id="clip0_8205_59582">
      <rect fill="#fff" transform="translate(3.41064 17.9902)" width="157.178" height="34.7907" />
    </clipPath>
  </defs>
</svg>